<svg width="29" height="27" viewBox="0 0 29 27" fill="none" xmlns="http://www.w3.org/2000/svg">
<g clip-path="url(#clip0_216_2577)">
<rect width="28" height="27" transform="translate(0.179688)" fill="#FAFAFA"/>
<path d="M14.2275 2.19718e-05C17.9592 0.00652994 21.3474 1.42803 23.8489 3.73892L25.86 1.79477C26.7115 0.971768 28.1673 1.55463 28.1673 2.71857V10.0161C28.1673 10.7376 27.5622 11.3226 26.8158 11.3226H19.2666C18.0626 11.3226 17.4596 9.91531 18.311 9.09226L20.662 6.81957C18.924 5.24642 16.675 4.37506 14.2858 4.35511C9.08264 4.31167 4.69673 8.3821 4.74172 13.5788C4.78439 18.5085 8.91888 22.6451 14.2018 22.6451C16.5178 22.6451 18.7067 21.8461 20.4316 20.3831C20.6988 20.1565 21.1021 20.1703 21.3533 20.4132L23.5868 22.5722C23.8611 22.8374 23.8476 23.2697 23.5596 23.5212C21.0832 25.6834 17.8016 27 14.2018 27C6.48889 27 0.236377 20.9559 0.236328 13.5001C0.236328 6.05285 6.52343 -0.0133217 14.2275 2.19718e-05Z" fill="#7A7A7A"/>
</g>
<defs>
<clipPath id="clip0_216_2577">
<rect width="28" height="27" fill="white" transform="translate(0.179688)"/>
</clipPath>
</defs>
</svg>
