<?xml version="1.0" encoding="utf-8"?>
<!-- Generator: Adobe Illustrator 19.0.0, SVG Export Plug-In . SVG Version: 6.00 Build 0)  -->
<svg version="1.1" id="圖層_2" xmlns="http://www.w3.org/2000/svg" xmlns:xlink="http://www.w3.org/1999/xlink" x="0px" y="0px"
	 viewBox="-289 412.9 16 16" style="enable-background:new -289 412.9 16 16;" xml:space="preserve">
<style type="text/css">
	.st0{fill:#7B654B;}
</style>
<g>
	<path class="st0" d="M-274.8,415.8C-274.8,415.8-274.7,415.8-274.8,415.8c0.1,0,0.1,0,0.1,0.1c0,0.1,0,0.1,0,0.2l-6.2,10.6
		c0,0,0,0,0,0.1c0,0,0,0-0.1,0c0,0,0,0,0,0c0,0,0,0,0,0c0,0,0,0-0.1,0c0,0,0,0,0-0.1l-6.2-10.6c0-0.1,0-0.1,0-0.2c0,0,0,0,0-0.1
		c0,0,0,0,0.1,0c0,0,0,0,0,0L-274.8,415.8C-274.8,415.8-274.8,415.8-274.8,415.8 M-274.8,414.3
		C-274.8,414.3-274.8,414.3-274.8,414.3l-12.4,0c0,0,0,0,0,0c-0.3,0-0.6,0.1-0.8,0.2c0,0,0,0,0,0c-0.2,0.2-0.4,0.4-0.5,0.6
		c-0.3,0.5-0.3,1.1,0,1.6l6.2,10.5c0.1,0.2,0.3,0.4,0.6,0.6c0,0,0,0,0.1,0c0.2,0.1,0.5,0.2,0.8,0.2c0.3,0,0.5-0.1,0.8-0.2
		c0,0,0,0,0.1,0c0.2-0.1,0.4-0.3,0.6-0.6l6.2-10.6c0.3-0.5,0.3-1.1,0-1.7c-0.1-0.2-0.3-0.4-0.5-0.6c0,0,0,0,0,0
		C-274.2,414.4-274.5,414.3-274.8,414.3L-274.8,414.3z"/>
</g>
</svg>
