<svg id="圖層_1" data-name="圖層 1" xmlns="http://www.w3.org/2000/svg" viewBox="0 0 601.33 107.72"><defs><style>.cls-1{fill:#15a6ae;}</style></defs><title>logo</title><path class="cls-1" d="M112.91,92.24v10.5H32.51V92.24H65.66V85.9H42.47V78a61.15,61.15,0,0,1-6.24,6.68,71.47,71.47,0,0,0-5.14-10.83c-1.31,11.37-4.48,23.95-11.7,32.81A46.06,46.06,0,0,0,9.32,98.26c8.86-10.94,9.74-26.47,9.74-37.74V41.05H33.83a54.49,54.49,0,0,0-5.47-5c7.87-1.2,16.51-2.74,24.94-4.71-6.89-1.74-14-3.28-20.46-4.48L39,22.13H20.15V12H58.22a63,63,0,0,0-4.16-5.68L62.81,2a64.4,64.4,0,0,1,7.33,10H108V22.13H92.13l5.25,3.28c-3.94,1.86-8.53,3.72-13.46,5.47,6.46,1.75,12.37,3.5,17.29,5.14l-6.13,5h16.08V51.44H31.75v9.19a108,108,0,0,1-.55,11.49A53.75,53.75,0,0,0,43.67,52.43l11,3.28c-.55,1.42-1.09,2.84-1.75,4.37H65.66V53.41h12.8v6.67h27V70.26h-27v5.68H102.3v10H78.46v6.34ZM65.66,75.94V70.26H47.83c-1.21,2-2.41,3.82-3.72,5.68ZM88,41.05c-5.36-1.86-11.92-3.72-18.81-5.58-7.88,2.08-15.86,3.94-23.52,5.58ZM48.59,22.13c6.89,1.53,14.11,3.17,21.33,4.92a108.38,108.38,0,0,0,14.33-4.92Z"/><path class="cls-1" d="M172.84,88.31c-7.44,6.23-20.56,11.92-31.83,14.54a50.76,50.76,0,0,0-7.66-9.41c10.94-1.52,23.63-5.24,30.3-9.29Zm58-18.49V80.54H188.37v24.94h-12.9V80.54H133.79V69.82h41.68V65H144V55.6h31.51V50.68h-37V40.83h20.13a59.26,59.26,0,0,0-4.05-8l7.33-1.64H134V21h14.88a101.11,101.11,0,0,0-7-13.56L153,3.75a71.56,71.56,0,0,1,8.32,15.31l-5.25,2h10.06V3.2h12V21h8.21V3.2h12.25V21h9.73l-3.94-1.2a95.9,95.9,0,0,0,7-15.75l13.68,3.17c-3.07,5-6,10-8.75,13.78h14.11V31.21H201.61l10.28,2.62c-2.4,2.63-4.7,5-6.67,7h21.11v9.85h-38V55.6h32.82V65H188.37v4.81ZM167.7,31.21a50.91,50.91,0,0,1,4.38,8.2l-5.91,1.42H196l-3.94-1.2c1.75-2.52,4-5.8,5.58-8.42Zm34.13,52.28c8.86,3.28,21.77,8.75,28.77,12.25l-9.19,7.11c-6.35-3.61-19.14-9.41-28.33-13.23Z"/><path class="cls-1" d="M351.67,85.35H309.89v7.88c0,5.79-1.31,8.64-5.8,10.39-4.48,1.53-10.5,1.64-18.7,1.64a42.28,42.28,0,0,0-3.94-10.94c5.14.22,11.7.22,13.34.11s2.3-.33,2.3-1.64V85.35h-44.3V75.07h44.3V71.9a79.79,79.79,0,0,0,12-6.35H274V56.47h47.58l2.74-.65,7.33,6.67a154,154,0,0,1-20.9,12.58h40.91ZM267.12,64.79H254.76V42.36H263L261,9.88a152.62,152.62,0,0,0,22.1-6.13l5.25,7.55a103.84,103.84,0,0,1-14.88,4.15l.22,3.18h13.89v8.09H274.12l.22,3.72h13.45V36a85,85,0,0,0,7.66-4.16c-2.08-1.31-4.16-2.51-6.13-3.61l6-5.14c2.19,1.1,4.49,2.41,6.78,3.72a43.14,43.14,0,0,0,4.38-4.59L315,24.75a45.38,45.38,0,0,1-5.8,6.56,44.87,44.87,0,0,1,6.57,5L309.34,42A70.33,70.33,0,0,0,303,36.68a82.24,82.24,0,0,1-8.86,5.68h35.44l.44-3.83H317.11V30.44h13.67l.22-3.72H317.66V18.63h13.89l.22-3.61H317V6.81h27.45c-.54,11.49-1.31,25.38-2.29,35.55h8.09V64.79H337.34v-13H267.12ZM275,42.36h17.72c-1.21-1.42-3.29-3.5-4.93-5v1.2h-13Zm33.9-20.12a56.26,56.26,0,0,0-5.68-4.6,55.68,55.68,0,0,1-8.86,5.47,61.38,61.38,0,0,0-6.79-5.8,49.49,49.49,0,0,0,8.32-4.26c-2.08-1.21-3.94-2.3-5.91-3.28l5.8-5c2.08,1,4.37,2.19,6.67,3.5a37.12,37.12,0,0,0,3.94-4.37l8.53,2.52a40.25,40.25,0,0,1-5.47,6c2.19,1.53,4.16,3.06,5.69,4.38Z"/><path class="cls-1" d="M407.34,38c-9,5.14-18.6,10.5-26.58,14.55l-4.6-10.18c7-3,17.83-8,28.33-13.12Zm58.3,4.37c0,5.36-.88,8.1-4.38,9.85-3.39,1.53-8.42,1.64-14.87,1.64a37.42,37.42,0,0,0-2.74-10.28c3.5.11,7.22.11,8.43.11s1.53-.33,1.53-1.43V17.86H432.06c5.14,2.08,11.59,4.92,15.2,6.67l-5.14,7.55,8.43-4,2.73,8.75C444.42,41.82,435,47,427,51.22l2.62.33c-1.42,2.84-2.95,5.58-4.26,8.1h34.67V105.7H446.5v-3.94H399.68v3.94H386.77V59.65h25.71c.87-2.3,1.64-4.82,2.3-7-3.18,1.2-8.1,1.31-14,1.31A37.31,37.31,0,0,0,398,43.68c3.5.1,7.22.1,8.42.1s1.53-.32,1.53-1.42V18H386.45c5.14,2.08,11.59,4.92,15.09,6.67l-5.91,8.64A164.15,164.15,0,0,0,379.23,25l5.14-7h-7.88V7.36h43.43V42.47c0,3.5-.33,5.91-1.53,7.44l7.76,1.2-4.37-9.73c4.92-2.08,11.7-5.14,18.92-8.64-3.94-2.3-10.83-5.58-15.86-7.88l5.14-7h-6.67V7.25h42.33ZM446.5,69.49H399.68v6.24H446.5Zm0,22.43V85.46H399.68v6.46Z"/><path class="cls-1" d="M505,76.6c-.77,9.63-2.41,20-4.6,26.58-2-1.2-6.67-2.62-9.08-3.17,2.41-6.46,3.61-16.19,4.27-24.94Zm86.63,16c0,5.8-1,8.75-4.38,10.61s-8.2,2.19-15.2,2.19a44.12,44.12,0,0,0-3.17-11.05c3.72.22,7.87.22,9.3.22s1.86-.55,1.86-2V19.06H544.82v86.42H533.34V66.86l-8.64,3.72c-.33-1.31-.66-3-1.21-4.59-21.44,3.5-25.05,4.59-27.45,5.58a70.24,70.24,0,0,0-3.61-10.39c2.73-.66,5-3.28,8.31-7.44,1.31-1.64,3.94-5,7-9.74-8.42,1-10.83,1.65-12.36,2.41A107.46,107.46,0,0,0,491.77,36c2.08-.55,3.83-2.63,5.91-5.91,2.19-3.06,8.64-15.2,12.47-26.69L520.54,7.8a168.52,168.52,0,0,1-14.33,26.69l7.66-.55c2.73-4.92,5.47-10.17,7.76-15.42L531,24.64a200.13,200.13,0,0,1-22.2,34L520.76,57c-.88-2.63-1.75-5.25-2.63-7.44l8.32-3.17a185.67,185.67,0,0,1,6.89,19.47V7.8h58.3ZM516,74.3a202.87,202.87,0,0,1,2.84,22.75l-9.08,2.41a225.37,225.37,0,0,0-2.3-23Zm10.93-3.17a145.1,145.1,0,0,1,6.24,20.46l-8.42,3.28a174.79,174.79,0,0,0-5.69-21Zm43.76,5.36a30.92,30.92,0,0,0,6.34-.65c.22,2.62.44,6.34.77,8.75-1.53.65-4.38.65-6.78.65h-9.19c-9.3,0-11.16-3.5-11.16-12.25V66.54h-3.17V56.8h11c-.77-2.3-1.86-5-2.74-7.11l6.56-2.08H546.9V37.88h5.91a57.19,57.19,0,0,0-4-14.22l7.33-2.41a59.5,59.5,0,0,1,4.7,14.44l-6.34,2.19h9.62a129,129,0,0,0,3.83-16.41l8.75,2.3c-1.53,4.7-3.06,10-4.37,14.11h5.58v9.73h-12.8a47.1,47.1,0,0,1,3.28,7.55L564,56.8h13.34v9.74H560.9V73.1c0,2.41.33,3.39,2.08,3.39Z"/></svg>